<svg width="314" height="290" viewBox="0 0 314 290" fill="none" xmlns="http://www.w3.org/2000/svg">
<g opacity="0.1">
<path fill-rule="evenodd" clip-rule="evenodd" d="M209.333 108.75C209.333 121.569 203.82 133.862 194.005 142.927C184.191 151.991 170.88 157.083 157 157.083C143.12 157.083 129.809 151.991 119.995 142.927C110.18 133.862 104.667 121.569 104.667 108.75C104.667 95.931 110.18 83.6373 119.995 74.573C129.809 65.5087 143.12 60.4165 157 60.4165C170.88 60.4165 184.191 65.5087 194.005 74.573C203.82 83.6373 209.333 95.931 209.333 108.75ZM183.167 108.75C183.167 115.159 180.41 121.306 175.503 125.838C170.595 130.37 163.94 132.917 157 132.917C150.06 132.917 143.405 130.37 138.497 125.838C133.59 121.306 130.833 115.159 130.833 108.75C130.833 102.34 133.59 96.1936 138.497 91.6614C143.405 87.1293 150.06 84.5832 157 84.5832C163.94 84.5832 170.595 87.1293 175.503 91.6614C180.41 96.1936 183.167 102.34 183.167 108.75Z" fill="#FFEEC3"/>
<path fill-rule="evenodd" clip-rule="evenodd" d="M157 12.0833C77.5188 12.0833 13.0834 71.5937 13.0834 145C13.0834 218.406 77.5188 277.917 157 277.917C236.481 277.917 300.917 218.406 300.917 145C300.917 71.5937 236.481 12.0833 157 12.0833ZM39.25 145C39.25 170.254 48.5785 193.502 64.213 211.966C75.193 198.649 89.3579 187.856 105.601 180.432C121.845 173.008 139.727 169.152 157.85 169.167C175.74 169.151 193.397 172.907 209.476 180.148C225.556 187.389 239.634 197.924 250.637 210.951C261.973 197.219 269.606 181.192 272.904 164.195C276.202 147.199 275.07 129.721 269.602 113.208C264.134 96.696 254.487 81.6234 241.459 69.2379C228.432 56.8523 212.398 47.5099 194.685 41.9836C176.972 36.4572 158.089 34.9059 139.597 37.4579C121.106 40.0099 103.539 46.5919 88.3488 56.6593C73.1587 66.7267 60.7827 79.99 52.2448 95.3519C43.7068 110.714 39.2524 127.732 39.25 145ZM157 253.75C129.969 253.787 103.754 245.199 82.7914 229.438C91.2292 218.282 102.46 209.173 115.528 202.887C128.597 196.601 143.116 193.324 157.85 193.333C172.401 193.322 186.745 196.518 199.69 202.655C212.635 208.791 223.808 217.692 232.282 228.617C211.156 244.889 184.509 253.786 157 253.75Z" fill="#FFEEC3"/>
</g>
</svg>
