<svg width="85" height="85" viewBox="0 0 85 85" fill="none" xmlns="http://www.w3.org/2000/svg">
<g clip-path="url(#clip0_198_634)">
<path d="M56.6666 35.4167C56.6666 39.1739 55.1741 42.7772 52.5173 45.434C49.8606 48.0908 46.2572 49.5833 42.5 49.5833C38.7427 49.5833 35.1394 48.0908 32.4826 45.434C29.8259 42.7772 28.3333 39.1739 28.3333 35.4167C28.3333 31.6594 29.8259 28.0561 32.4826 25.3993C35.1394 22.7426 38.7427 21.25 42.5 21.25C46.2572 21.25 49.8606 22.7426 52.5173 25.3993C55.1741 28.0561 56.6666 31.6594 56.6666 35.4167Z" fill="white"/>
<path fill-rule="evenodd" clip-rule="evenodd" d="M41.055 77.8883C22.1655 77.1303 7.08331 61.5753 7.08331 42.4999C7.08331 22.9393 22.9394 7.08325 42.5 7.08325C62.0606 7.08325 77.9166 22.9393 77.9166 42.4999C77.9166 62.0605 62.0606 77.9166 42.5 77.9166H42.0148C41.6937 77.9166 41.3737 77.9071 41.055 77.8883ZM19.7731 64.8478C19.5083 64.0874 19.4182 63.2771 19.5094 62.477C19.6006 61.677 19.8709 60.9077 20.3001 60.2264C20.7293 59.5451 21.3064 58.9692 21.9886 58.5415C22.6709 58.1137 23.4407 57.8452 24.2409 57.7557C38.0463 56.2274 47.0386 56.3655 60.7767 57.7875C61.5781 57.871 62.3498 58.1362 63.0331 58.5629C63.7164 58.9897 64.2934 59.5668 64.7199 60.2502C65.1465 60.9337 65.4115 61.7054 65.4948 62.5068C65.578 63.3081 65.4773 64.1179 65.2003 64.8744C71.0885 58.9173 74.3859 50.8759 74.375 42.4999C74.375 24.8961 60.1038 10.6249 42.5 10.6249C24.8961 10.6249 10.625 24.8961 10.625 42.4999C10.625 51.2053 14.1153 59.0962 19.7731 64.8478Z" fill="white"/>
</g>
<defs>
<clipPath id="clip0_198_634">
<rect width="85" height="85" fill="white"/>
</clipPath>
</defs>
</svg>
