<svg width="18" height="28" viewBox="0 0 18 28" fill="none" xmlns="http://www.w3.org/2000/svg">
<path d="M16 0C16.5304 0 17.0391 0.318128 17.4142 0.8844C17.7893 1.45067 18 2.2187 18 3.01953V24.1562C18 24.9571 17.7893 25.7251 17.4142 26.2914C17.0391 26.8577 16.5304 27.1758 16 27.1758H2C1.46957 27.1758 0.960859 26.8577 0.585786 26.2914C0.210714 25.7251 0 24.9571 0 24.1562V3.01953C0 2.2187 0.210714 1.45067 0.585786 0.8844C0.960859 0.318128 1.46957 0 2 0H16ZM15.5 23.4014V15.3996C15.5 14.0943 15.1565 12.8424 14.5452 11.9193C13.9338 10.9963 13.1046 10.4778 12.24 10.4778C11.39 10.4778 10.4 11.2629 9.92 12.4405V10.7646H7.13V23.4014H9.92V15.9582C9.92 14.7957 10.54 13.8446 11.31 13.8446C11.6813 13.8446 12.0374 14.0672 12.2999 14.4636C12.5625 14.86 12.71 15.3976 12.71 15.9582V23.4014H15.5ZM3.88 8.3943C4.32556 8.3943 4.75288 8.12707 5.06794 7.6514C5.383 7.17573 5.56 6.53059 5.56 5.85789C5.56 4.45381 4.81 3.30639 3.88 3.30639C3.43178 3.30639 3.00193 3.5752 2.68499 4.0537C2.36805 4.5322 2.19 5.18119 2.19 5.85789C2.19 7.26197 2.95 8.3943 3.88 8.3943ZM5.27 23.4014V10.7646H2.5V23.4014H5.27Z" fill="#F8F8F8"/>
</svg>
