<svg width="20" height="31" viewBox="0 0 20 31" fill="none" xmlns="http://www.w3.org/2000/svg">
<path d="M5.8 0H14.2C17.4 0 20 3.92539 20 8.75664V21.4387C20 23.7611 19.3889 25.9884 18.3012 27.6306C17.2135 29.2727 15.7383 30.1953 14.2 30.1953H5.8C2.6 30.1953 0 26.2699 0 21.4387V8.75664C0 6.43424 0.61107 4.20695 1.69878 2.56476C2.78649 0.922572 4.26174 0 5.8 0ZM5.6 3.01953C4.64522 3.01953 3.72955 3.59216 3.05442 4.61145C2.37928 5.63074 2 7.01319 2 8.45469V21.7406C2 24.7451 3.61 27.1758 5.6 27.1758H14.4C15.3548 27.1758 16.2705 26.6032 16.9456 25.5839C17.6207 24.5646 18 23.1821 18 21.7406V8.45469C18 5.45025 16.39 3.01953 14.4 3.01953H5.6ZM15.25 5.28418C15.5815 5.28418 15.8995 5.48301 16.1339 5.83693C16.3683 6.19085 16.5 6.67087 16.5 7.17139C16.5 7.67191 16.3683 8.15192 16.1339 8.50584C15.8995 8.85976 15.5815 9.05859 15.25 9.05859C14.9185 9.05859 14.6005 8.85976 14.3661 8.50584C14.1317 8.15192 14 7.67191 14 7.17139C14 6.67087 14.1317 6.19085 14.3661 5.83693C14.6005 5.48301 14.9185 5.28418 15.25 5.28418ZM10 7.54883C11.3261 7.54883 12.5979 8.34415 13.5355 9.75983C14.4732 11.1755 15 13.0956 15 15.0977C15 17.0997 14.4732 19.0198 13.5355 20.4355C12.5979 21.8512 11.3261 22.6465 10 22.6465C8.67392 22.6465 7.40215 21.8512 6.46447 20.4355C5.52678 19.0198 5 17.0997 5 15.0977C5 13.0956 5.52678 11.1755 6.46447 9.75983C7.40215 8.34415 8.67392 7.54883 10 7.54883ZM10 10.5684C9.20435 10.5684 8.44129 11.0456 7.87868 11.895C7.31607 12.7444 7 13.8964 7 15.0977C7 16.2989 7.31607 17.4509 7.87868 18.3004C8.44129 19.1498 9.20435 19.627 10 19.627C10.7956 19.627 11.5587 19.1498 12.1213 18.3004C12.6839 17.4509 13 16.2989 13 15.0977C13 13.8964 12.6839 12.7444 12.1213 11.895C11.5587 11.0456 10.7956 10.5684 10 10.5684Z" fill="#F8F8F8"/>
</svg>
