<svg width="20" height="30" viewBox="0 0 20 30" fill="none" xmlns="http://www.w3.org/2000/svg">
<path d="M10 0C8.68678 0 7.38642 0.390512 6.17317 1.14924C4.95991 1.90797 3.85752 3.02005 2.92893 4.422C1.05357 7.25336 0 11.0935 0 15.0977C0 21.7708 2.87 27.4324 6.84 29.4404C7.34 29.5612 7.5 29.0932 7.5 28.6855V26.134C4.73 27.0399 4.14 24.111 4.14 24.111C3.68 22.3596 3.03 21.8916 3.03 21.8916C2.12 20.9555 3.1 20.9857 3.1 20.9857C4.1 21.0914 4.63 22.5408 4.63 22.5408C5.5 24.8356 6.97 24.1562 7.54 23.7939C7.63 22.8126 7.89 22.1483 8.17 21.7708C5.95 21.3934 3.62 20.095 3.62 14.3428C3.62 12.6669 4 11.3232 4.65 10.2513C4.55 9.87387 4.2 8.30371 4.75 6.26553C4.75 6.26553 5.59 5.85789 7.5 7.80549C8.29 7.47334 9.15 7.30727 10 7.30727C10.85 7.30727 11.71 7.47334 12.5 7.80549C14.41 5.85789 15.25 6.26553 15.25 6.26553C15.8 8.30371 15.45 9.87387 15.35 10.2513C16 11.3232 16.38 12.6669 16.38 14.3428C16.38 20.1101 14.04 21.3783 11.81 21.7557C12.17 22.2237 12.5 23.1447 12.5 24.5488V28.6855C12.5 29.0932 12.66 29.5763 13.17 29.4404C17.14 27.4173 20 21.7708 20 15.0977C20 13.115 19.7413 11.1518 19.2388 9.32003C18.7362 7.4883 17.9997 5.82395 17.0711 4.422C16.1425 3.02005 15.0401 1.90797 13.8268 1.14924C12.6136 0.390512 11.3132 0 10 0Z" fill="#F8F8F8"/>
</svg>
